<svg xmlns="http://www.w3.org/2000/svg" xmlns:xlink="http://www.w3.org/1999/xlink" width="28" height="30" viewBox="0 0 28 30"><defs><path id="b" d="M27.88 510.96c1.4 0 2.55 1.17 2.55 2.61v18.91c0 .35.27.65.62.65s.63-.28.63-.65v-18.92c0-2.14-1.7-3.88-3.78-3.88a3.86 3.86 0 0 0-3.8 3.88v22.03c0 .98.26 1.94.76 2.77a.62.62 0 0 0 .85.21.66.66 0 0 0 .21-.88 4.05 4.05 0 0 1-.57-2.1v-22.03a2.56 2.56 0 0 1 2.53-2.6z"/><path id="d" d="M33.5 510.35a.6.6 0 0 0-.84-.26.65.65 0 0 0-.25.87c.41.79.64 1.7.64 2.6v22.04a3.95 3.95 0 0 1-3.85 4.02c-.67 0-1.34-.19-1.91-.52a.6.6 0 0 0-.83.24c-.17.3-.07.7.23.87.76.45 1.62.7 2.5.7a5.2 5.2 0 0 0 5.08-5.3v-22.06a6.62 6.62 0 0 0-.78-3.2z"/><path id="f" d="M27.82 508.16c1.04 0 2.04.32 2.9.92.29.2.66.12.85-.18a.63.63 0 0 0-.17-.88 6.17 6.17 0 0 0-3.58-1.14c-3.54 0-6.42 3-6.42 6.68v18.87c0 .34.27.64.61.64.34 0 .62-.28.62-.64v-18.87a5.3 5.3 0 0 1 5.2-5.4z"/><linearGradient id="a" x1="31.55" x2="24.1" y1="524.17" y2="524.17" gradientUnits="userSpaceOnUse"><stop offset=".04" stop-color="#3d57c6"/><stop offset=".97" stop-color="#3e6edb"/></linearGradient><linearGradient id="c" x1="34.14" x2="26.38" y1="525.46" y2="525.46" gradientUnits="userSpaceOnUse"><stop offset=".04" stop-color="#3d57c6"/><stop offset=".97" stop-color="#3e6edb"/></linearGradient><linearGradient id="e" x1="31.5" x2="21.4" y1="519.97" y2="519.97" gradientUnits="userSpaceOnUse"><stop offset=".04" stop-color="#3d57c6"/><stop offset=".97" stop-color="#3e6edb"/></linearGradient></defs><g transform="rotate(45 635.92 253.1)"><use fill="url(#a)" xlink:href="#b"/><use fill="#fff" fill-opacity="0" stroke-miterlimit="50" stroke-width=".7" xlink:href="#b"/></g><g transform="rotate(45 635.92 253.1)"><use fill="url(#c)" xlink:href="#d"/><use fill="#fff" fill-opacity="0" stroke-miterlimit="50" stroke-width=".7" xlink:href="#d"/></g><g transform="rotate(45 635.92 253.1)"><use fill="url(#e)" xlink:href="#f"/><use fill="#fff" fill-opacity="0" stroke-miterlimit="50" stroke-width=".7" xlink:href="#f"/></g></svg>