<svg xmlns="http://www.w3.org/2000/svg" viewBox="0 0 426.667 426.667"><path d="M303.147 153.813l-30.294-30.293-59.52 59.733-59.52-59.733-30.293 30.293 59.733 59.52-59.733 59.52 30.293 30.294 59.52-59.734 59.52 59.734 30.294-30.294-59.734-59.52z"/><path d="M213.333 0C95.513 0 0 95.513 0 213.333s95.513 213.333 213.333 213.333 213.333-95.513 213.333-213.333S331.154 0 213.333 0zm0 388.053c-96.495 0-174.72-78.225-174.72-174.72s78.225-174.72 174.72-174.72c96.446.117 174.602 78.273 174.72 174.72 0 96.496-78.224 174.72-174.72 174.72z"/></svg>