<svg id="Capa_1" xmlns="http://www.w3.org/2000/svg" viewBox="0 0 456.3 456.3"><style>.st0{stroke:#fff;fill:#fff;stroke-width:10;stroke-miterlimit:10}</style><path class="st0" d="M227.8 450.2c-37.2 0-74.6-9.3-108.5-28.4-6.3-3.5-8.5-11.5-5-17.8 3.5-6.3 11.5-8.5 17.8-5 76.2 42.9 172.7 29.6 234.6-32.3 76.4-76.4 76.4-200.7 0-277.1-76.4-76.4-200.7-76.4-277.2 0-76.4 76.4-76.4 200.7 0 277.1 5.1 5.1 5.1 13.4 0 18.5s-13.4 5.1-18.5 0c-86.6-86.6-86.6-227.5 0-314.1 86.6-86.6 227.5-86.6 314.1 0 86.6 86.6 86.6 227.5 0 314.1-42.5 42.7-99.7 65-157.3 65z"/><path class="st0" d="M297.5 314.9c-3.3 0-6.7-1.3-9.2-3.8L149.6 172.3c-5.1-5.1-5.1-13.4 0-18.5s13.4-5.1 18.5 0l138.8 138.8c5.1 5.1 5.1 13.4 0 18.5-2.7 2.5-6 3.8-9.4 3.8z"/><path class="st0" d="M158.8 314.9c-3.3 0-6.7-1.3-9.2-3.8-5.1-5.1-5.1-13.4 0-18.5l138.8-138.8c5.1-5.1 13.4-5.1 18.5 0s5.1 13.4 0 18.5L168 311.1c-2.5 2.5-5.9 3.8-9.2 3.8z"/></svg>