<svg id="Layer_1" xmlns="http://www.w3.org/2000/svg" viewBox="0 0 512 512"><style>.st0{stroke:#000;stroke-width:6;stroke-miterlimit:10}</style><path class="st0" d="M438.5 92.6c-38.6-43.9-91.7-72.5-149.4-80.3-3.9-.5-7.5 2.2-8 6.1-.5 3.9 2.2 7.5 6.1 8 54.3 7.4 104.2 34.3 140.6 75.6 36.7 41.7 56.9 95.4 56.9 151.1 0 61.1-23.8 118.6-67 161.8s-100.7 67-161.8 67c-61.1 0-118.6-23.8-161.8-67s-67-100.7-67-161.8S51 134.5 94.2 91.3s100.7-67 161.8-67c3.9 0 7.1-3.2 7.1-7.1S259.9 10 256 10c-64.9 0-125.9 25.3-171.8 71.2S13 188.2 13 253.1s25.3 126 71.2 171.9 106.9 71.2 171.8 71.2 125.9-25.3 171.8-71.2S499 318 499 253.1c0-59.1-21.5-116.1-60.5-160.5z"/><path class="st0" d="M326.4 346.4c20.1-6.2 38.2-18.9 50.9-35.8 13.1-17.5 20.1-38.3 20.1-60.2 0-55.4-45-100.4-100.4-100.4h-82c-55.4 0-100.4 45-100.4 100.4 0 40.3 24 76.6 61.1 92.4 2.5 1.1 4.1 3.5 4.1 6.2v24c0 6.6 4 12.3 10.2 14.5 1.7.6 3.5.9 5.3.9 4.5 0 8.8-2 11.8-5.7l24.1-29.5c1.3-1.6 3.2-2.5 5.2-2.5h55.2c3.9 0 7.1-3.2 7.1-7.1 0-3.9-3.2-7.1-7.1-7.1h-55.2c-6.3 0-12.2 2.8-16.2 7.7l-24.1 29.5c-.1.2-.5.6-1.2.3s-.7-.8-.7-1.1v-24c0-8.4-5-16-12.8-19.3-31.8-13.6-52.4-44.7-52.4-79.3 0-47.5 38.6-86.2 86.2-86.2H297c47.5 0 86.2 38.7 86.2 86.2 0 18.8-6 36.7-17.2 51.7-10.9 14.5-26.4 25.4-43.6 30.7-3.8 1.2-5.9 5.1-4.7 8.9 1 3.9 5 6 8.7 4.8z"/><path class="st0" d="M180.1 249.2c0 11.8 9.6 21.4 21.4 21.4s21.4-9.6 21.4-21.4c0-11.8-9.6-21.4-21.4-21.4s-21.4 9.5-21.4 21.4zm28.6 0c0 4-3.2 7.2-7.2 7.2s-7.2-3.2-7.2-7.2 3.2-7.2 7.2-7.2 7.2 3.2 7.2 7.2zm25.9 0c0 11.8 9.6 21.4 21.4 21.4 11.8 0 21.4-9.6 21.4-21.4 0-11.8-9.6-21.4-21.4-21.4-11.8-.1-21.4 9.5-21.4 21.4zm28.6 0c0 4-3.2 7.2-7.2 7.2s-7.2-3.2-7.2-7.2 3.2-7.2 7.2-7.2 7.2 3.2 7.2 7.2zm68.7 0c0-11.8-9.6-21.4-21.4-21.4-11.8 0-21.4 9.6-21.4 21.4 0 11.8 9.6 21.4 21.4 21.4 11.8 0 21.4-9.6 21.4-21.4zm-21.4 7.2c-4 0-7.2-3.2-7.2-7.2s3.2-7.2 7.2-7.2 7.2 3.2 7.2 7.2c0 3.9-3.2 7.2-7.2 7.2z"/></svg>