<svg id="Capa_1" xmlns="http://www.w3.org/2000/svg" viewBox="0 0 266.8 266.8"><style>.st0{stroke:#000;stroke-width:6;stroke-miterlimit:10}</style><path class="st0" d="M131 36.5c10.8 0 19.6 8.8 19.6 19.6v141.7c0 2.6 2.1 4.8 4.8 4.8s4.8-2.1 4.8-4.8V56c0-16-13.1-29.1-29.1-29.1S101.9 40 101.9 56v165.1c0 7.3 2 14.5 5.8 20.7.9 1.5 2.5 2.3 4.1 2.3.9 0 1.7-.2 2.5-.7 2.2-1.4 3-4.3 1.6-6.6-2.9-4.7-4.4-10.1-4.4-15.7V56c-.1-10.8 8.7-19.5 19.5-19.5z"/><path class="st0" d="M174.9 32.2c-1.3-2.3-4.2-3.2-6.5-1.9-2.3 1.3-3.2 4.2-1.9 6.5 3.2 5.9 5 12.7 5 19.5v164.9c0 16.6-13.5 30.1-30.1 30.1-5.2 0-10.4-1.4-14.9-3.9-2.3-1.3-5.2-.5-6.5 1.8-1.3 2.3-.5 5.2 1.8 6.5 6 3.4 12.7 5.2 19.6 5.2 21.8 0 39.6-17.8 39.6-39.6V56.2c.1-8.4-2-16.7-6.1-24zM131 15.7c8.1 0 15.9 2.4 22.6 6.9 2.2 1.5 5.1.9 6.6-1.3s.9-5.2-1.3-6.6C150.7 9.1 141 6.1 131 6.1c-27.6 0-50.1 22.5-50.1 50.1v141.5c0 2.6 2.1 4.8 4.8 4.8 2.6 0 4.8-2.1 4.8-4.8V56.2c-.1-22.3 18.1-40.5 40.5-40.5z"/></svg>