<svg xmlns="http://www.w3.org/2000/svg" viewBox="0 0 512 512" width="512" height="512"><path fill="#FFF" d="M51.2 51.2h51.2v51.2H51.2zM358.4 0v25.6h-25.6v25.6h25.6v102.4H384v25.6h-25.6v25.6h51.2v-51.2h76.8v25.6H512V0H358.4zm128 128H384V25.6h102.4V128z"/><path fill="#FFF" d="M409.6 51.2h51.2v51.2h-51.2zM51.2 409.6h51.2v51.2H51.2zm307.2-51.2H384V384h-25.6zm-128 128H256V512h-25.6zM256 384h25.6v25.6H256zm0 51.2h25.6v25.6H256zm230.4-128H512v25.6h-25.6zM0 307.2h25.6v25.6H0zm0-128h25.6v25.6H0zM281.6 25.6v25.6h-51.2v25.6h76.8V25.6z"/><path d="M486.4 204.8v25.6h-51.2V256h-76.8v-25.6h-25.6V256h-51.2v25.6h76.8v25.6h-76.8v-25.6H256v25.6h-25.6v-25.6h-25.6v25.6h-25.6v25.6h51.2v25.6H256v-25.6h51.2v25.6h-25.6V384h25.6v51.2h25.6v25.6h25.6v-25.6h76.8V384h25.6v-25.6h-25.6v-51.2H384v-25.6h51.2v25.6h25.6v-25.6h25.6V256H512v-51.2h-25.6zm-76.8 128v76.8h-76.8v-76.8h76.8zm-76.8-179.2h-25.6v25.6h-25.6v51.2h25.6v-25.6h25.6v-25.6h25.6v-25.6zm-51.2 332.8h51.2V512h-51.2zM204.8 25.6h25.6v25.6h-25.6z" fill="#FFF"/><path fill="#FFF" d="M409.6 204.8h25.6v25.6h-25.6zm25.6-25.6h25.6v25.6h-25.6zm-332.8 128H128v25.6h-25.6zm51.2 179.2V384h25.6v-51.2h-25.6v25.6H76.8v-25.6H25.6v25.6H0V512h204.8v-25.6h-51.2zm-25.6 0H25.6V384H128v102.4zm25.6-332.8h25.6v25.6h-25.6zM179.2 0H0v153.6h25.6v25.6h25.6v-25.6h25.6v25.6h25.6v-25.6h51.2v-51.2h25.6V76.8h-25.6V25.6h51.2V0h-25.6zM128 128H25.6V25.6H128V128zm179.2-51.2h25.6v25.6h-25.6zM256 0h25.6v25.6H256z"/><path d="M307.2 153.6V128h-25.6v-25.6H256V128h-51.2v-25.6h-25.6v51.2h25.6v51.2H128v-25.6h-25.6v25.6H25.6v25.6h51.2V256H0v25.6h76.8v25.6h25.6v-25.6H128v25.6h25.6v-25.6h51.2V256h-25.6v-25.6h51.2V256h51.2v-25.6H256v-25.6h-25.6v-51.2h76.8zM153.6 256h-51.2v-25.6h51.2V256zm76.8 153.6v-51.2h-25.6V384h-25.6v25.6h25.6v25.6h-25.6v25.6h51.2v-25.6H256v-25.6zm230.4 51.2v-25.6h-25.6v25.6h-76.8v25.6h51.2V512h25.6v-25.6h51.2V512H512v-51.2zm25.6-102.4V384h-25.6v25.6H512v-51.2z" fill="#FFF"/></svg>