<svg xmlns="http://www.w3.org/2000/svg" xmlns:xlink="http://www.w3.org/1999/xlink" width="26" height="23" viewBox="0 0 26 23"><defs><path id="b" d="M342.3 523.5c0-.86-.49-1.59-1.28-1.91l-20.5-8.54a2.07 2.07 0 0 0-2.67 2.83l3.27 6.65c.1.2.29.33.5.34l11.6.95a.61.61 0 0 0 .1-1.23l-11.25-.92-3.11-6.34a.82.82 0 0 1 .14-.95c.1-.1.44-.4.94-.2l20.5 8.54c.49.2.52.65.52.78s-.03.58-.51.78l-20.51 8.53a.82.82 0 0 1-.94-.2.82.82 0 0 1-.14-.95l3.27-6.65a.61.61 0 0 0-.28-.82.61.61 0 0 0-.83.28l-3.27 6.65c-.38.78-.25 1.7.35 2.34a2.07 2.07 0 0 0 2.31.5l20.5-8.54a2.04 2.04 0 0 0 1.3-1.92z"/><linearGradient id="a" x1="340.98" x2="318.34" y1="523.5" y2="523.5" gradientUnits="userSpaceOnUse"><stop offset="0" stop-color="#3d57c6"/><stop offset="1" stop-color="#3e6edb"/></linearGradient></defs><g transform="translate(-317 -512)"><use fill="url(#a)" xlink:href="#b"/><use fill="#fff" fill-opacity="0" stroke-miterlimit="50" stroke-width=".5" xlink:href="#b"/></g></svg>