<svg xmlns="http://www.w3.org/2000/svg" viewBox="0 0 117 297"><path d="M95.6 16.5c-14.4 0-27.3 6.7-35.7 17.2-8.4-10.4-21.3-17.2-35.7-17.2-5.6 0-10.1 4.5-10.1 10.1s4.5 10.1 10.1 10.1c14.1 0 25.6 11.5 25.6 25.6v172.3c0 14.1-11.5 25.6-25.6 25.6-5.6 0-10.1 4.5-10.1 10.1s4.5 10.1 10.1 10.1c14.4 0 27.3-6.7 35.7-17.2 8.4 10.4 21.3 17.2 35.7 17.2 5.6 0 10.1-4.5 10.1-10.1s-4.5-10.1-10.1-10.1c-14.1 0-25.6-11.5-25.6-25.6V62.4c0-14.1 11.5-25.6 25.6-25.6 5.6 0 10.1-4.5 10.1-10.1s-4.6-10.2-10.1-10.2z"/></svg>